<?xml version="1.0" encoding="UTF-8"?>
<!DOCTYPE svg PUBLIC "-//W3C//DTD SVG 1.0//EN" "http://www.w3.org/TR/SVG/DTD/svg10.dtd">
<svg xmlns:xlink="http://www.w3.org/1999/xlink" xmlns="http://www.w3.org/2000/svg" width="2423" height="1303" viewBox="-0.5 -0.5 2423 1303">
  <g>
    <rect x="12" y="2" width="2410" height="25" fill="#F2F2F2"/>
    <rect x="12" y="2" width="2410" height="25" stroke="#C7C7C7" stroke-width="1" fill="none"/>
    <text x="15" y="14" text-anchor="start" dominant-baseline="middle" font-family="Helvetica" font-size="18" fill="#222222">Graph Builder</text>
    <rect x="67" y="52" width="2338" height="1212" fill="#DDDDDD"/>
    <clipPath id="clip1">
      <rect x="12" y="28" width="1259" height="22"/>
    </clipPath>
    <text x="1146" y="45" text-anchor="start" dominant-baseline="alphabetic" font-family="Helvetica" font-size="18" fill="#000000" clip-path="url(#clip1)">Tweets of time</text>
    <clipPath id="clip2">
      <rect x="67" y="1283" width="1201" height="18"/>
    </clipPath>
    <text x="1203" y="1293" text-anchor="start" dominant-baseline="alphabetic" font-family="Helvetica" font-size="11" fill="#000000" clip-path="url(#clip2)">Date of tweet</text>
    <clipPath id="clip3">
      <rect x="57" y="1264" width="2358" height="19"/>
    </clipPath>
    <line x1="67" y1="1264" x2="67" y2="1270" stroke="#A5A5A5" stroke-width="1" clip-path="url(#clip3)"/>
    <line x1="425" y1="1264" x2="425" y2="1270" stroke="#A5A5A5" stroke-width="1" clip-path="url(#clip3)"/>
    <line x1="796" y1="1264" x2="796" y2="1270" stroke="#A5A5A5" stroke-width="1" clip-path="url(#clip3)"/>
    <line x1="1166" y1="1264" x2="1166" y2="1270" stroke="#A5A5A5" stroke-width="1" clip-path="url(#clip3)"/>
    <line x1="1543" y1="1264" x2="1543" y2="1270" stroke="#A5A5A5" stroke-width="1" clip-path="url(#clip3)"/>
    <line x1="1913" y1="1264" x2="1913" y2="1270" stroke="#A5A5A5" stroke-width="1" clip-path="url(#clip3)"/>
    <line x1="2284" y1="1264" x2="2284" y2="1270" stroke="#A5A5A5" stroke-width="1" clip-path="url(#clip3)"/>
    <text x="57" y="1271" text-anchor="start" dominant-baseline="hanging" font-family="Helvetica" font-size="11" fill="#000000" clip-path="url(#clip3)">2015-01-01</text>
    <text x="425" y="1271" text-anchor="middle" dominant-baseline="hanging" font-family="Helvetica" font-size="11" fill="#000000" clip-path="url(#clip3)">2015-03-01</text>
    <text x="796" y="1271" text-anchor="middle" dominant-baseline="hanging" font-family="Helvetica" font-size="11" fill="#000000" clip-path="url(#clip3)">2015-05-01</text>
    <text x="1166" y="1271" text-anchor="middle" dominant-baseline="hanging" font-family="Helvetica" font-size="11" fill="#000000" clip-path="url(#clip3)">2015-07-01</text>
    <text x="1543" y="1271" text-anchor="middle" dominant-baseline="hanging" font-family="Helvetica" font-size="11" fill="#000000" clip-path="url(#clip3)">2015-09-01</text>
    <text x="1913" y="1271" text-anchor="middle" dominant-baseline="hanging" font-family="Helvetica" font-size="11" fill="#000000" clip-path="url(#clip3)">2015-11-01</text>
    <text x="2284" y="1271" text-anchor="middle" dominant-baseline="hanging" font-family="Helvetica" font-size="11" fill="#000000" clip-path="url(#clip3)">2016-01-01</text>
    <clipPath id="clip4">
      <rect x="12" y="52" width="18" height="1212"/>
    </clipPath>
    <g clip-path="url(#clip4)">
      <g transform="translate(12,657)">
        <g transform="rotate(-90)">
          <text x="0" y="0" text-anchor="middle" dominant-baseline="hanging" font-family="Helvetica" font-size="11" fill="#000000">Number of tweets</text>
        </g>
      </g>
    </g>
    <clipPath id="clip5">
      <rect x="30" y="42" width="37" height="1232"/>
    </clipPath>
    <line x1="61" y1="1264" x2="67" y2="1264" stroke="#A5A5A5" stroke-width="1" clip-path="url(#clip5)"/>
    <line x1="61" y1="1129" x2="67" y2="1129" stroke="#A5A5A5" stroke-width="1" clip-path="url(#clip5)"/>
    <line x1="61" y1="995" x2="67" y2="995" stroke="#A5A5A5" stroke-width="1" clip-path="url(#clip5)"/>
    <line x1="61" y1="860" x2="67" y2="860" stroke="#A5A5A5" stroke-width="1" clip-path="url(#clip5)"/>
    <line x1="61" y1="725" x2="67" y2="725" stroke="#A5A5A5" stroke-width="1" clip-path="url(#clip5)"/>
    <line x1="61" y1="591" x2="67" y2="591" stroke="#A5A5A5" stroke-width="1" clip-path="url(#clip5)"/>
    <line x1="61" y1="456" x2="67" y2="456" stroke="#A5A5A5" stroke-width="1" clip-path="url(#clip5)"/>
    <line x1="61" y1="321" x2="67" y2="321" stroke="#A5A5A5" stroke-width="1" clip-path="url(#clip5)"/>
    <line x1="61" y1="187" x2="67" y2="187" stroke="#A5A5A5" stroke-width="1" clip-path="url(#clip5)"/>
    <line x1="61" y1="52" x2="67" y2="52" stroke="#A5A5A5" stroke-width="1" clip-path="url(#clip5)"/>
    <text x="59" y="1264" text-anchor="end" dominant-baseline="middle" font-family="Helvetica" font-size="11" fill="#000000" clip-path="url(#clip5)">0</text>
    <text x="59" y="1129" text-anchor="end" dominant-baseline="middle" font-family="Helvetica" font-size="11" fill="#000000" clip-path="url(#clip5)">500</text>
    <text x="59" y="995" text-anchor="end" dominant-baseline="middle" font-family="Helvetica" font-size="11" fill="#000000" clip-path="url(#clip5)">1000</text>
    <text x="59" y="860" text-anchor="end" dominant-baseline="middle" font-family="Helvetica" font-size="11" fill="#000000" clip-path="url(#clip5)">1500</text>
    <text x="59" y="725" text-anchor="end" dominant-baseline="middle" font-family="Helvetica" font-size="11" fill="#000000" clip-path="url(#clip5)">2000</text>
    <text x="59" y="591" text-anchor="end" dominant-baseline="middle" font-family="Helvetica" font-size="11" fill="#000000" clip-path="url(#clip5)">2500</text>
    <text x="59" y="456" text-anchor="end" dominant-baseline="middle" font-family="Helvetica" font-size="11" fill="#000000" clip-path="url(#clip5)">3000</text>
    <text x="59" y="321" text-anchor="end" dominant-baseline="middle" font-family="Helvetica" font-size="11" fill="#000000" clip-path="url(#clip5)">3500</text>
    <text x="59" y="187" text-anchor="end" dominant-baseline="middle" font-family="Helvetica" font-size="11" fill="#000000" clip-path="url(#clip5)">4000</text>
    <text x="59" y="52" text-anchor="end" dominant-baseline="middle" font-family="Helvetica" font-size="11" fill="#000000" clip-path="url(#clip5)">4500</text>
    <rect x="67" y="52" width="2338" height="1212" fill="#FFFFFF"/>
    <clipPath id="clip6">
      <rect x="0" y="27" width="2422" height="1275"/>
    </clipPath>
    <g clip-path="url(#clip6)">
      <clipPath id="clip7">
        <rect x="68" y="53" width="2337" height="1211"/>
      </clipPath>
      <polygon points="121.65,1259.69, 127.73,1055.54, 133.8,1244.34, 139.87,1262.65, 145.95,1261.58, 152.02,1262.92, 158.09,1263.46, 164.16,1263.46, 176.31,1263.19, 182.38,1263.46, 194.53,1263.46, 212.75,1263.73, 218.82,1263.73, 224.89,1263.73, 249.18,1263.73, 255.25,1263.73, 261.33,1263.46, 273.47,1263.73, 303.84,1263.73, 309.91,1263.73, 322.05,1263.73, 346.35,1263.73, 352.42,1263.46, 370.64,1262.92, 388.85,1262.92, 407.07,1263.73, 419.22,1263.73, 431.36,1263.19, 437.44,1263.46, 443.51,1263.46, 449.58,1263.73, 461.73,1263.73, 467.8,1261.58, 473.87,1262.92, 498.16,1263.73, 516.38,1263.46, 534.6,1263.46, 546.75,1262.38, 552.82,1262.92, 558.89,1263.46, 571.04,1263.73, 577.11,1263.73, 583.18,1263.73, 589.25,1263.73, 619.62,1263.73, 625.69,1263.73, 643.91,1263.73, 649.98,1263.19, 674.27,1263.46, 686.42,1263.46, 728.93,1263.73, 759.29,1263.73, 789.65,1262.92, 795.73,1263.46, 801.8,1263.73, 813.95,1263.73, 820.02,1263.73, 826.09,1263.73, 856.45,1263.73, 862.53,1262.92, 874.67,1263.73, 880.75,1263.73, 898.96,1263.73, 905.04,1263.46, 911.11,1263.19, 917.18,1263.73, 941.47,1263.19, 977.91,1263.73, 1026.49,1263.73, 1050.78,1263.19, 1069,1263.73, 1099.36,1263.73, 1135.8,1263.73, 1172.24,1263.73, 1232.96,1263.46, 1251.18,1263.73, 1257.25,1263.73, 1281.55,1263.73, 1317.98,1263.73, 1336.2,1263.73, 1433.36,1263.46, 1451.58,1263.73, 1457.65,1263.19, 1463.73,1262.65, 1469.8,1263.46, 1506.24,1263.46, 1518.38,1263.46, 1530.53,1263.46, 1542.67,1263.46, 1548.75,1263.46, 1554.82,1263.73, 1560.89,1263.46, 1573.04,1263.19, 1585.18,1262.65, 1591.25,1263.73, 1597.33,1263.46, 1603.4,1263.73, 1609.47,1262.92, 1615.55,1262.92, 1621.62,1262.38, 1627.69,1262.92, 1633.76,1263.73, 1639.84,1262.92, 1645.91,1263.46, 1651.98,1263.73, 1658.05,1263.46, 1664.13,1262.92, 1670.2,1263.73, 1676.27,1263.19, 1682.35,1260.5, 1688.42,1263.19, 1694.49,1260.5, 1700.56,1261.31, 1706.64,1260.23, 1712.71,1261.85, 1718.78,1260.5, 1724.85,1251.34, 1730.93,1258.61, 1737,1256.73, 1743.07,1257.27, 1749.15,1227.64, 1755.22,1231.68, 1761.29,1237.61, 1767.36,1247.03, 1773.44,1249.46, 1779.51,1248.65, 1785.58,1245.15, 1791.65,1230.33, 1797.73,1221.98, 1803.8,1230.87, 1809.87,1234.37, 1815.95,1230.87, 1822.02,1231.95, 1828.09,1229.79, 1834.16,1214.17, 1840.24,1216.87, 1846.31,1220.64, 1852.38,1221.71, 1858.45,1232.22, 1864.53,1232.22, 1870.6,1231.41, 1876.67,1223.6, 1882.75,1213.37, 1888.82,1209.59, 1894.89,1203.67, 1900.96,1203.13, 1907.04,1218.21, 1913.11,1232.49, 1919.18,1193.17, 1925.25,1198.28, 1931.33,1178.62, 1937.4,1164.08, 1943.47,1149.53, 1949.55,1209.33, 1955.62,123.37, 1961.69,935.14, 1967.76,1175.93, 1973.84,1156.54, 1979.91,1184.01, 1985.98,1222.25, 1992.05,1255.11, 1998.13,1256.73, 2004.2,1246.22, 2010.27,1244.61, 2016.35,1258.88, 2022.42,1255.11, 2028.49,1260.5, 2034.56,1260.23, 2046.71,1262.92, 2052.78,1256.46, 2058.85,1211.75, 2064.93,1207.71, 2071,1195.05, 2077.07,1231.95, 2083.15,1211.75, 2089.22,1202.59, 2095.29,1217.94, 2101.36,1207.71, 2107.44,1125.56, 2113.51,1196.4, 2119.58,1217.67, 2125.65,1228.99, 2131.73,1069, 2137.8,1208.52, 2143.87,1210.13, 2149.95,1212.02, 2156.02,1215.79, 2162.09,1222.25, 2168.16,1238.41, 2174.24,1188.32, 2180.31,1158.69, 2186.38,1164.62, 2192.45,1214.17, 2198.53,1204.21, 2204.6,1167.58, 2210.67,1160.58, 2216.75,1173.23, 2222.82,990.36, 2228.89,969.89, 2234.96,1201.25, 2241.04,1249.19, 2247.11,1241.11, 2253.18,1230.33, 2259.25,1111.56, 2265.33,1185.09, 2271.4,1197.47, 2277.47,1231.68, 2283.55,1254.03, 2289.62,1227.1, 2295.69,1223.06, 2301.76,1194.78, 2307.84,1212.02, 2313.91,1221.98, 2319.98,1220.91, 2326.05,1219.29, 2332.13,1230.33, 2338.2,1237.87, 2344.27,1214.71, 2350.35,1222.79, 2356.42,1211.48, 2362.49,1220.37, 2368.56,1210.13, 2374.64,1241.65, 2380.71,1206.36, 2386.78,1205.02, 2392.85,1214.17, 2398.93,1206.9, 2405,1214.17, 2405,1264, 2398.93,1264, 2392.85,1264, 2386.78,1264, 2380.71,1264, 2374.64,1264, 2368.56,1264, 2362.49,1264, 2356.42,1264, 2350.35,1264, 2344.27,1264, 2338.2,1264, 2332.13,1264, 2326.05,1264, 2319.98,1264, 2313.91,1264, 2307.84,1264, 2301.76,1264, 2295.69,1264, 2289.62,1264, 2283.55,1264, 2277.47,1264, 2271.4,1264, 2265.33,1264, 2259.25,1264, 2253.18,1264, 2247.11,1264, 2241.04,1264, 2234.96,1264, 2228.89,1264, 2222.82,1264, 2216.75,1264, 2210.67,1264, 2204.6,1264, 2198.53,1264, 2192.45,1264, 2186.38,1264, 2180.31,1264, 2174.24,1264, 2168.16,1264, 2162.09,1264, 2156.02,1264, 2149.95,1264, 2143.87,1264, 2137.8,1264, 2131.73,1264, 2125.65,1264, 2119.58,1264, 2113.51,1264, 2107.44,1264, 2101.36,1264, 2095.29,1264, 2089.22,1264, 2083.15,1264, 2077.07,1264, 2071,1264, 2064.93,1264, 2058.85,1264, 2052.78,1264, 2046.71,1264, 2034.56,1264, 2028.49,1264, 2022.42,1264, 2016.35,1264, 2010.27,1264, 2004.2,1264, 1998.13,1264, 1992.05,1264, 1985.98,1264, 1979.91,1264, 1973.84,1264, 1967.76,1264, 1961.69,1264, 1955.62,1264, 1949.55,1264, 1943.47,1264, 1937.4,1264, 1931.33,1264, 1925.25,1264, 1919.18,1264, 1913.11,1264, 1907.04,1264, 1900.96,1264, 1894.89,1264, 1888.82,1264, 1882.75,1264, 1876.67,1264, 1870.6,1264, 1864.53,1264, 1858.45,1264, 1852.38,1264, 1846.31,1264, 1840.24,1264, 1834.16,1264, 1828.09,1264, 1822.02,1264, 1815.95,1264, 1809.87,1264, 1803.8,1264, 1797.73,1264, 1791.65,1264, 1785.58,1264, 1779.51,1264, 1773.44,1264, 1767.36,1264, 1761.29,1264, 1755.22,1264, 1749.15,1264, 1743.07,1264, 1737,1264, 1730.93,1264, 1724.85,1264, 1718.78,1264, 1712.71,1264, 1706.64,1264, 1700.56,1264, 1694.49,1264, 1688.42,1264, 1682.35,1264, 1676.27,1264, 1670.2,1264, 1664.13,1264, 1658.05,1264, 1651.98,1264, 1645.91,1264, 1639.84,1264, 1633.76,1264, 1627.69,1264, 1621.62,1264, 1615.55,1264, 1609.47,1264, 1603.4,1264, 1597.33,1264, 1591.25,1264, 1585.18,1264, 1573.04,1264, 1560.89,1264, 1554.82,1264, 1548.75,1264, 1542.67,1264, 1530.53,1264, 1518.38,1264, 1506.24,1264, 1469.8,1264, 1463.73,1264, 1457.65,1264, 1451.58,1264, 1433.36,1264, 1336.2,1264, 1317.98,1264, 1281.55,1264, 1257.25,1264, 1251.18,1264, 1232.96,1264, 1172.24,1264, 1135.8,1264, 1099.36,1264, 1069,1264, 1050.78,1264, 1026.49,1264, 977.91,1264, 941.47,1264, 917.18,1264, 911.11,1264, 905.04,1264, 898.96,1264, 880.75,1264, 874.67,1264, 862.53,1264, 856.45,1264, 826.09,1264, 820.02,1264, 813.95,1264, 801.8,1264, 795.73,1264, 789.65,1264, 759.29,1264, 728.93,1264, 686.42,1264, 674.27,1264, 649.98,1264, 643.91,1264, 625.69,1264, 619.62,1264, 589.25,1264, 583.18,1264, 577.11,1264, 571.04,1264, 558.89,1264, 552.82,1264, 546.75,1264, 534.6,1264, 516.38,1264, 498.16,1264, 473.87,1264, 467.8,1264, 461.73,1264, 449.58,1264, 443.51,1264, 437.44,1264, 431.36,1264, 419.22,1264, 407.07,1264, 388.85,1264, 370.64,1264, 352.42,1264, 346.35,1264, 322.05,1264, 309.91,1264, 303.84,1264, 273.47,1264, 261.33,1264, 255.25,1264, 249.18,1264, 224.89,1264, 218.82,1264, 212.75,1264, 194.53,1264, 182.38,1264, 176.31,1264, 164.16,1264, 158.09,1264, 152.02,1264, 145.95,1264, 139.87,1264, 133.8,1264, 127.73,1264, 121.65,1264" stroke="#406ED3" stroke-width="2" fill="#406ED3" clip-path="url(#clip7)"/>
      <rect x="2326" y="57" width="74" height="15" fill="#FFFFFF" fill-opacity="0.5"/>
      <text x="2399" y="58" text-anchor="end" dominant-baseline="hanging" font-family="Helvetica" font-size="11" fill="#444444" clip-path="url(#clip7)">Mean: 123.105</text>
    </g>
    <polyline fill="none" stroke="#A5A5A5" stroke-width="1" points="67,1264,67,52,2405,52,2405,1264,67,1264"/>
  </g>
</svg>